<mxfile host="app.diagrams.net" modified="2021-10-25T10:01:15.260Z" agent="5.0 (Macintosh; Intel Mac OS X 10_15_7) AppleWebKit/537.36 (KHTML, like Gecko) Chrome/95.0.4638.54 Safari/537.36" etag="DREYvzw6qtKGBVMqB8gL" version="15.5.9" type="github" pages="2">
  <diagram id="WJ9BeAuLm62Ba0F3D9UN" name="第 1 页">
    <mxGraphModel dx="1162" dy="724" grid="1" gridSize="10" guides="1" tooltips="1" connect="1" arrows="1" fold="1" page="1" pageScale="1" pageWidth="827" pageHeight="1169" math="0" shadow="0">
      <root>
        <mxCell id="0" />
        <mxCell id="1" parent="0" />
        <mxCell id="N2kTKkAlgSf3bYL6WLcB-12" value="Mindmap" style="swimlane;startSize=20;horizontal=1;containerType=tree;rounded=1;fillColor=#B2C9AB;strokeColor=#788AA3;fontColor=#46495D;" vertex="1" parent="1">
          <mxGeometry x="10" y="110" width="640" height="150" as="geometry">
            <mxRectangle x="210" y="160" width="90" height="20" as="alternateBounds" />
          </mxGeometry>
        </mxCell>
        <mxCell id="N2kTKkAlgSf3bYL6WLcB-13" value="" style="edgeStyle=entityRelationEdgeStyle;startArrow=none;endArrow=none;segment=10;strokeColor=#788AA3;fontColor=#46495D;" edge="1" parent="N2kTKkAlgSf3bYL6WLcB-12" source="N2kTKkAlgSf3bYL6WLcB-17" target="N2kTKkAlgSf3bYL6WLcB-18">
          <mxGeometry relative="1" as="geometry" />
        </mxCell>
        <mxCell id="N2kTKkAlgSf3bYL6WLcB-14" value="" style="edgeStyle=entityRelationEdgeStyle;startArrow=none;endArrow=none;segment=10;strokeColor=#788AA3;fontColor=#46495D;" edge="1" parent="N2kTKkAlgSf3bYL6WLcB-12" source="N2kTKkAlgSf3bYL6WLcB-17" target="N2kTKkAlgSf3bYL6WLcB-19">
          <mxGeometry relative="1" as="geometry" />
        </mxCell>
        <mxCell id="N2kTKkAlgSf3bYL6WLcB-15" value="" style="edgeStyle=entityRelationEdgeStyle;startArrow=none;endArrow=none;segment=10;strokeColor=#788AA3;fontColor=#46495D;" edge="1" parent="N2kTKkAlgSf3bYL6WLcB-12" source="N2kTKkAlgSf3bYL6WLcB-17" target="N2kTKkAlgSf3bYL6WLcB-20">
          <mxGeometry relative="1" as="geometry" />
        </mxCell>
        <mxCell id="N2kTKkAlgSf3bYL6WLcB-16" value="" style="edgeStyle=entityRelationEdgeStyle;startArrow=none;endArrow=none;segment=10;strokeColor=#788AA3;fontColor=#46495D;" edge="1" parent="N2kTKkAlgSf3bYL6WLcB-12" source="N2kTKkAlgSf3bYL6WLcB-17" target="N2kTKkAlgSf3bYL6WLcB-21">
          <mxGeometry relative="1" as="geometry" />
        </mxCell>
        <mxCell id="N2kTKkAlgSf3bYL6WLcB-17" value="Central Idea" style="ellipse;whiteSpace=wrap;html=1;align=center;treeFolding=1;treeMoving=1;newEdgeStyle={&quot;edgeStyle&quot;:&quot;entityRelationEdgeStyle&quot;,&quot;startArrow&quot;:&quot;none&quot;,&quot;endArrow&quot;:&quot;none&quot;,&quot;segment&quot;:10,&quot;curved&quot;:1};rounded=1;fillColor=#B2C9AB;strokeColor=#788AA3;fontColor=#46495D;" vertex="1" parent="N2kTKkAlgSf3bYL6WLcB-12">
          <mxGeometry x="160" y="60" width="100" height="40" as="geometry" />
        </mxCell>
        <mxCell id="N2kTKkAlgSf3bYL6WLcB-18" value="Topic" style="whiteSpace=wrap;html=1;arcSize=50;align=center;verticalAlign=middle;strokeWidth=1;autosize=1;spacing=4;treeFolding=1;treeMoving=1;newEdgeStyle={&quot;edgeStyle&quot;:&quot;entityRelationEdgeStyle&quot;,&quot;startArrow&quot;:&quot;none&quot;,&quot;endArrow&quot;:&quot;none&quot;,&quot;segment&quot;:10,&quot;curved&quot;:1};rounded=1;fillColor=#B2C9AB;strokeColor=#788AA3;fontColor=#46495D;" vertex="1" parent="N2kTKkAlgSf3bYL6WLcB-12">
          <mxGeometry x="320" y="40" width="80" height="20" as="geometry" />
        </mxCell>
        <mxCell id="N2kTKkAlgSf3bYL6WLcB-19" value="Branch" style="whiteSpace=wrap;html=1;shape=partialRectangle;top=0;left=0;bottom=1;right=0;points=[[0,1],[1,1]];fillColor=none;align=center;verticalAlign=bottom;routingCenterY=0.5;snapToPoint=1;autosize=1;treeFolding=1;treeMoving=1;newEdgeStyle={&quot;edgeStyle&quot;:&quot;entityRelationEdgeStyle&quot;,&quot;startArrow&quot;:&quot;none&quot;,&quot;endArrow&quot;:&quot;none&quot;,&quot;segment&quot;:10,&quot;curved&quot;:1};rounded=1;strokeColor=#788AA3;fontColor=#46495D;" vertex="1" parent="N2kTKkAlgSf3bYL6WLcB-12">
          <mxGeometry x="320" y="80" width="72" height="26" as="geometry" />
        </mxCell>
        <mxCell id="N2kTKkAlgSf3bYL6WLcB-20" value="Topic" style="whiteSpace=wrap;html=1;arcSize=50;align=center;verticalAlign=middle;strokeWidth=1;autosize=1;spacing=4;treeFolding=1;treeMoving=1;newEdgeStyle={&quot;edgeStyle&quot;:&quot;entityRelationEdgeStyle&quot;,&quot;startArrow&quot;:&quot;none&quot;,&quot;endArrow&quot;:&quot;none&quot;,&quot;segment&quot;:10,&quot;curved&quot;:1};rounded=1;fillColor=#B2C9AB;strokeColor=#788AA3;fontColor=#46495D;" vertex="1" parent="N2kTKkAlgSf3bYL6WLcB-12">
          <mxGeometry x="20" y="40" width="80" height="20" as="geometry" />
        </mxCell>
        <mxCell id="N2kTKkAlgSf3bYL6WLcB-21" value="Branch" style="whiteSpace=wrap;html=1;shape=partialRectangle;top=0;left=0;bottom=1;right=0;points=[[0,1],[1,1]];fillColor=none;align=center;verticalAlign=bottom;routingCenterY=0.5;snapToPoint=1;autosize=1;treeFolding=1;treeMoving=1;newEdgeStyle={&quot;edgeStyle&quot;:&quot;entityRelationEdgeStyle&quot;,&quot;startArrow&quot;:&quot;none&quot;,&quot;endArrow&quot;:&quot;none&quot;,&quot;segment&quot;:10,&quot;curved&quot;:1};rounded=1;strokeColor=#788AA3;fontColor=#46495D;" vertex="1" parent="N2kTKkAlgSf3bYL6WLcB-12">
          <mxGeometry x="20" y="80" width="72" height="26" as="geometry" />
        </mxCell>
        <mxCell id="N2kTKkAlgSf3bYL6WLcB-22" value="" style="edgeStyle=entityRelationEdgeStyle;startArrow=none;endArrow=none;segment=10;strokeColor=#788AA3;fontColor=#46495D;" edge="1" target="N2kTKkAlgSf3bYL6WLcB-23" source="N2kTKkAlgSf3bYL6WLcB-18" parent="N2kTKkAlgSf3bYL6WLcB-12">
          <mxGeometry relative="1" as="geometry">
            <mxPoint x="470" y="240" as="sourcePoint" />
          </mxGeometry>
        </mxCell>
        <mxCell id="N2kTKkAlgSf3bYL6WLcB-23" value="这样1" style="whiteSpace=wrap;html=1;arcSize=50;align=center;verticalAlign=middle;strokeWidth=1;autosize=1;spacing=4;treeFolding=1;treeMoving=1;newEdgeStyle={&quot;edgeStyle&quot;:&quot;entityRelationEdgeStyle&quot;,&quot;startArrow&quot;:&quot;none&quot;,&quot;endArrow&quot;:&quot;none&quot;,&quot;segment&quot;:10,&quot;curved&quot;:1};rounded=1;fillColor=#ffe6cc;strokeColor=#d79b00;" vertex="1" parent="N2kTKkAlgSf3bYL6WLcB-12">
          <mxGeometry x="445" y="35" width="70" height="30" as="geometry" />
        </mxCell>
        <mxCell id="N2kTKkAlgSf3bYL6WLcB-24" value="" style="edgeStyle=entityRelationEdgeStyle;startArrow=none;endArrow=none;segment=10;strokeColor=#788AA3;fontColor=#46495D;" edge="1" target="N2kTKkAlgSf3bYL6WLcB-25" source="N2kTKkAlgSf3bYL6WLcB-18" parent="N2kTKkAlgSf3bYL6WLcB-12">
          <mxGeometry relative="1" as="geometry">
            <mxPoint x="470" y="240" as="sourcePoint" />
          </mxGeometry>
        </mxCell>
        <mxCell id="N2kTKkAlgSf3bYL6WLcB-25" value="Topic" style="whiteSpace=wrap;html=1;arcSize=50;align=center;verticalAlign=middle;strokeWidth=1;autosize=1;spacing=4;treeFolding=1;treeMoving=1;newEdgeStyle={&quot;edgeStyle&quot;:&quot;entityRelationEdgeStyle&quot;,&quot;startArrow&quot;:&quot;none&quot;,&quot;endArrow&quot;:&quot;none&quot;,&quot;segment&quot;:10,&quot;curved&quot;:1};rounded=1;fillColor=#B2C9AB;strokeColor=#788AA3;fontColor=#46495D;" vertex="1" parent="N2kTKkAlgSf3bYL6WLcB-12">
          <mxGeometry x="440" y="100" width="80" height="20" as="geometry" />
        </mxCell>
        <mxCell id="N2kTKkAlgSf3bYL6WLcB-26" value="" style="edgeStyle=entityRelationEdgeStyle;startArrow=none;endArrow=none;segment=10;strokeColor=#788AA3;fontColor=#46495D;" edge="1" target="N2kTKkAlgSf3bYL6WLcB-27" source="N2kTKkAlgSf3bYL6WLcB-18" parent="N2kTKkAlgSf3bYL6WLcB-12">
          <mxGeometry relative="1" as="geometry">
            <mxPoint x="610" y="210" as="sourcePoint" />
          </mxGeometry>
        </mxCell>
        <mxCell id="N2kTKkAlgSf3bYL6WLcB-27" value="Topic" style="whiteSpace=wrap;html=1;arcSize=50;align=center;verticalAlign=middle;strokeWidth=1;autosize=1;spacing=4;treeFolding=1;treeMoving=1;newEdgeStyle={&quot;edgeStyle&quot;:&quot;entityRelationEdgeStyle&quot;,&quot;startArrow&quot;:&quot;none&quot;,&quot;endArrow&quot;:&quot;none&quot;,&quot;segment&quot;:10,&quot;curved&quot;:1};rounded=1;fillColor=#B2C9AB;strokeColor=#788AA3;fontColor=#46495D;" vertex="1" parent="N2kTKkAlgSf3bYL6WLcB-12">
          <mxGeometry x="440" y="70" width="80" height="20" as="geometry" />
        </mxCell>
        <mxCell id="N2kTKkAlgSf3bYL6WLcB-28" value="" style="edgeStyle=entityRelationEdgeStyle;startArrow=none;endArrow=none;segment=10;strokeColor=#788AA3;fontColor=#46495D;" edge="1" target="N2kTKkAlgSf3bYL6WLcB-29" source="N2kTKkAlgSf3bYL6WLcB-18" parent="N2kTKkAlgSf3bYL6WLcB-12">
          <mxGeometry relative="1" as="geometry">
            <mxPoint x="610" y="210" as="sourcePoint" />
          </mxGeometry>
        </mxCell>
        <mxCell id="N2kTKkAlgSf3bYL6WLcB-29" value="Topic" style="whiteSpace=wrap;html=1;arcSize=50;align=center;verticalAlign=middle;strokeWidth=1;autosize=1;spacing=4;treeFolding=1;treeMoving=1;newEdgeStyle={&quot;edgeStyle&quot;:&quot;entityRelationEdgeStyle&quot;,&quot;startArrow&quot;:&quot;none&quot;,&quot;endArrow&quot;:&quot;none&quot;,&quot;segment&quot;:10,&quot;curved&quot;:1};rounded=1;fillColor=#B2C9AB;strokeColor=#788AA3;fontColor=#46495D;" vertex="1" parent="N2kTKkAlgSf3bYL6WLcB-12">
          <mxGeometry x="440" y="130" width="80" height="20" as="geometry" />
        </mxCell>
        <mxCell id="N2kTKkAlgSf3bYL6WLcB-30" value="" style="edgeStyle=entityRelationEdgeStyle;startArrow=none;endArrow=none;segment=10;strokeColor=#788AA3;fontColor=#46495D;" edge="1" target="N2kTKkAlgSf3bYL6WLcB-31" source="N2kTKkAlgSf3bYL6WLcB-23" parent="N2kTKkAlgSf3bYL6WLcB-12">
          <mxGeometry relative="1" as="geometry">
            <mxPoint x="410" y="160" as="sourcePoint" />
          </mxGeometry>
        </mxCell>
        <mxCell id="N2kTKkAlgSf3bYL6WLcB-31" value="Topic" style="whiteSpace=wrap;html=1;arcSize=50;align=center;verticalAlign=middle;strokeWidth=1;autosize=1;spacing=4;treeFolding=1;treeMoving=1;newEdgeStyle={&quot;edgeStyle&quot;:&quot;entityRelationEdgeStyle&quot;,&quot;startArrow&quot;:&quot;none&quot;,&quot;endArrow&quot;:&quot;none&quot;,&quot;segment&quot;:10,&quot;curved&quot;:1};rounded=1;fillColor=#B2C9AB;strokeColor=#788AA3;fontColor=#46495D;" vertex="1" parent="N2kTKkAlgSf3bYL6WLcB-12">
          <mxGeometry x="560" y="40" width="80" height="20" as="geometry" />
        </mxCell>
      </root>
    </mxGraphModel>
  </diagram>
  <diagram id="iFGiFfCqZzKGF4sz4bhS" name="第 2 页">
    <mxGraphModel dx="1162" dy="724" grid="1" gridSize="10" guides="1" tooltips="1" connect="1" arrows="1" fold="1" page="1" pageScale="1" pageWidth="827" pageHeight="1169" math="0" shadow="0">
      <root>
        <mxCell id="7WFSDIs8T0SyF3vfC2ME-0" />
        <mxCell id="7WFSDIs8T0SyF3vfC2ME-1" parent="7WFSDIs8T0SyF3vfC2ME-0" />
        <mxCell id="7WFSDIs8T0SyF3vfC2ME-2" value="" style="edgeStyle=entityRelationEdgeStyle;startArrow=none;endArrow=none;segment=10;strokeColor=#788AA3;fontColor=#46495D;" edge="1" parent="7WFSDIs8T0SyF3vfC2ME-1" target="7WFSDIs8T0SyF3vfC2ME-4">
          <mxGeometry relative="1" as="geometry">
            <mxPoint x="270" y="190" as="sourcePoint" />
          </mxGeometry>
        </mxCell>
        <mxCell id="7WFSDIs8T0SyF3vfC2ME-3" value="" style="edgeStyle=entityRelationEdgeStyle;startArrow=none;endArrow=none;segment=10;strokeColor=#788AA3;fontColor=#46495D;" edge="1" parent="7WFSDIs8T0SyF3vfC2ME-1" target="7WFSDIs8T0SyF3vfC2ME-5">
          <mxGeometry relative="1" as="geometry">
            <mxPoint x="270" y="190" as="sourcePoint" />
          </mxGeometry>
        </mxCell>
        <mxCell id="7WFSDIs8T0SyF3vfC2ME-4" value="Topic" style="whiteSpace=wrap;html=1;arcSize=50;align=center;verticalAlign=middle;strokeWidth=1;autosize=1;spacing=4;treeFolding=1;treeMoving=1;newEdgeStyle={&quot;edgeStyle&quot;:&quot;entityRelationEdgeStyle&quot;,&quot;startArrow&quot;:&quot;none&quot;,&quot;endArrow&quot;:&quot;none&quot;,&quot;segment&quot;:10,&quot;curved&quot;:1};rounded=1;fillColor=#B2C9AB;strokeColor=#788AA3;fontColor=#46495D;" vertex="1" parent="7WFSDIs8T0SyF3vfC2ME-1">
          <mxGeometry x="330" y="150" width="80" height="20" as="geometry" />
        </mxCell>
        <mxCell id="7WFSDIs8T0SyF3vfC2ME-5" value="Branch" style="whiteSpace=wrap;html=1;shape=partialRectangle;top=0;left=0;bottom=1;right=0;points=[[0,1],[1,1]];fillColor=none;align=center;verticalAlign=bottom;routingCenterY=0.5;snapToPoint=1;autosize=1;treeFolding=1;treeMoving=1;newEdgeStyle={&quot;edgeStyle&quot;:&quot;entityRelationEdgeStyle&quot;,&quot;startArrow&quot;:&quot;none&quot;,&quot;endArrow&quot;:&quot;none&quot;,&quot;segment&quot;:10,&quot;curved&quot;:1};rounded=1;strokeColor=#788AA3;fontColor=#46495D;" vertex="1" parent="7WFSDIs8T0SyF3vfC2ME-1">
          <mxGeometry x="330" y="190" width="72" height="26" as="geometry" />
        </mxCell>
        <mxCell id="7WFSDIs8T0SyF3vfC2ME-6" value="" style="edgeStyle=entityRelationEdgeStyle;startArrow=none;endArrow=none;segment=10;strokeColor=#788AA3;fontColor=#46495D;" edge="1" parent="7WFSDIs8T0SyF3vfC2ME-1" source="7WFSDIs8T0SyF3vfC2ME-4" target="7WFSDIs8T0SyF3vfC2ME-7">
          <mxGeometry relative="1" as="geometry">
            <mxPoint x="470" y="240" as="sourcePoint" />
          </mxGeometry>
        </mxCell>
        <mxCell id="7WFSDIs8T0SyF3vfC2ME-7" value="这样1" style="whiteSpace=wrap;html=1;arcSize=50;align=center;verticalAlign=middle;strokeWidth=1;autosize=1;spacing=4;treeFolding=1;treeMoving=1;newEdgeStyle={&quot;edgeStyle&quot;:&quot;entityRelationEdgeStyle&quot;,&quot;startArrow&quot;:&quot;none&quot;,&quot;endArrow&quot;:&quot;none&quot;,&quot;segment&quot;:10,&quot;curved&quot;:1};rounded=1;fillColor=#ffe6cc;strokeColor=#d79b00;" vertex="1" parent="7WFSDIs8T0SyF3vfC2ME-1">
          <mxGeometry x="455" y="145" width="70" height="30" as="geometry" />
        </mxCell>
        <mxCell id="7WFSDIs8T0SyF3vfC2ME-8" value="" style="edgeStyle=entityRelationEdgeStyle;startArrow=none;endArrow=none;segment=10;strokeColor=#788AA3;fontColor=#46495D;" edge="1" parent="7WFSDIs8T0SyF3vfC2ME-1" source="7WFSDIs8T0SyF3vfC2ME-4" target="7WFSDIs8T0SyF3vfC2ME-9">
          <mxGeometry relative="1" as="geometry">
            <mxPoint x="470" y="240" as="sourcePoint" />
          </mxGeometry>
        </mxCell>
        <mxCell id="7WFSDIs8T0SyF3vfC2ME-9" value="Topic" style="whiteSpace=wrap;html=1;arcSize=50;align=center;verticalAlign=middle;strokeWidth=1;autosize=1;spacing=4;treeFolding=1;treeMoving=1;newEdgeStyle={&quot;edgeStyle&quot;:&quot;entityRelationEdgeStyle&quot;,&quot;startArrow&quot;:&quot;none&quot;,&quot;endArrow&quot;:&quot;none&quot;,&quot;segment&quot;:10,&quot;curved&quot;:1};rounded=1;fillColor=#B2C9AB;strokeColor=#788AA3;fontColor=#46495D;" vertex="1" parent="7WFSDIs8T0SyF3vfC2ME-1">
          <mxGeometry x="450" y="210" width="80" height="20" as="geometry" />
        </mxCell>
        <mxCell id="7WFSDIs8T0SyF3vfC2ME-10" value="" style="edgeStyle=entityRelationEdgeStyle;startArrow=none;endArrow=none;segment=10;strokeColor=#788AA3;fontColor=#46495D;" edge="1" parent="7WFSDIs8T0SyF3vfC2ME-1" source="7WFSDIs8T0SyF3vfC2ME-4" target="7WFSDIs8T0SyF3vfC2ME-11">
          <mxGeometry relative="1" as="geometry">
            <mxPoint x="610" y="210" as="sourcePoint" />
          </mxGeometry>
        </mxCell>
        <mxCell id="7WFSDIs8T0SyF3vfC2ME-11" value="Topic" style="whiteSpace=wrap;html=1;arcSize=50;align=center;verticalAlign=middle;strokeWidth=1;autosize=1;spacing=4;treeFolding=1;treeMoving=1;newEdgeStyle={&quot;edgeStyle&quot;:&quot;entityRelationEdgeStyle&quot;,&quot;startArrow&quot;:&quot;none&quot;,&quot;endArrow&quot;:&quot;none&quot;,&quot;segment&quot;:10,&quot;curved&quot;:1};rounded=1;fillColor=#B2C9AB;strokeColor=#788AA3;fontColor=#46495D;" vertex="1" parent="7WFSDIs8T0SyF3vfC2ME-1">
          <mxGeometry x="450" y="180" width="80" height="20" as="geometry" />
        </mxCell>
        <mxCell id="7WFSDIs8T0SyF3vfC2ME-12" value="" style="edgeStyle=entityRelationEdgeStyle;startArrow=none;endArrow=none;segment=10;strokeColor=#788AA3;fontColor=#46495D;" edge="1" parent="7WFSDIs8T0SyF3vfC2ME-1" source="7WFSDIs8T0SyF3vfC2ME-4" target="7WFSDIs8T0SyF3vfC2ME-13">
          <mxGeometry relative="1" as="geometry">
            <mxPoint x="610" y="210" as="sourcePoint" />
          </mxGeometry>
        </mxCell>
        <mxCell id="7WFSDIs8T0SyF3vfC2ME-13" value="Topic" style="whiteSpace=wrap;html=1;arcSize=50;align=center;verticalAlign=middle;strokeWidth=1;autosize=1;spacing=4;treeFolding=1;treeMoving=1;newEdgeStyle={&quot;edgeStyle&quot;:&quot;entityRelationEdgeStyle&quot;,&quot;startArrow&quot;:&quot;none&quot;,&quot;endArrow&quot;:&quot;none&quot;,&quot;segment&quot;:10,&quot;curved&quot;:1};rounded=1;fillColor=#B2C9AB;strokeColor=#788AA3;fontColor=#46495D;" vertex="1" parent="7WFSDIs8T0SyF3vfC2ME-1">
          <mxGeometry x="450" y="240" width="80" height="20" as="geometry" />
        </mxCell>
        <mxCell id="7WFSDIs8T0SyF3vfC2ME-14" value="" style="edgeStyle=entityRelationEdgeStyle;startArrow=none;endArrow=none;segment=10;strokeColor=#788AA3;fontColor=#46495D;" edge="1" parent="7WFSDIs8T0SyF3vfC2ME-1" source="7WFSDIs8T0SyF3vfC2ME-7" target="7WFSDIs8T0SyF3vfC2ME-15">
          <mxGeometry relative="1" as="geometry">
            <mxPoint x="410" y="160" as="sourcePoint" />
          </mxGeometry>
        </mxCell>
        <mxCell id="7WFSDIs8T0SyF3vfC2ME-15" value="Topic" style="whiteSpace=wrap;html=1;arcSize=50;align=center;verticalAlign=middle;strokeWidth=1;autosize=1;spacing=4;treeFolding=1;treeMoving=1;newEdgeStyle={&quot;edgeStyle&quot;:&quot;entityRelationEdgeStyle&quot;,&quot;startArrow&quot;:&quot;none&quot;,&quot;endArrow&quot;:&quot;none&quot;,&quot;segment&quot;:10,&quot;curved&quot;:1};rounded=1;fillColor=#B2C9AB;strokeColor=#788AA3;fontColor=#46495D;" vertex="1" parent="7WFSDIs8T0SyF3vfC2ME-1">
          <mxGeometry x="570" y="150" width="80" height="20" as="geometry" />
        </mxCell>
      </root>
    </mxGraphModel>
  </diagram>
</mxfile>
